<svg width="14" height="13" viewBox="0 0 14 13" fill="none" xmlns="http://www.w3.org/2000/svg">
<path d="M8.121 0.29243C7.93353 0.479958 7.82821 0.734266 7.82821 0.999431C7.82821 1.2646 7.93353 1.5189 8.121 1.70643L11.413 4.99943L1 5.00643C0.734784 5.00643 0.48043 5.11179 0.292893 5.29932C0.105357 5.48686 7.4775e-08 5.74121 7.16123e-08 6.00643C6.84497e-08 6.27165 0.105357 6.526 0.292893 6.71354C0.48043 6.90107 0.734784 7.00643 1 7.00643L11.414 6.99943L8.121 10.2924C8.02549 10.3847 7.94931 10.495 7.8969 10.617C7.84449 10.739 7.8169 10.8702 7.81575 11.003C7.8146 11.1358 7.8399 11.2675 7.89018 11.3904C7.94046 11.5133 8.01471 11.6249 8.10861 11.7188C8.2025 11.8127 8.31415 11.887 8.43705 11.9373C8.55994 11.9875 8.69162 12.0128 8.8244 12.0117C8.95718 12.0105 9.0884 11.9829 9.2104 11.9305C9.33241 11.8781 9.44275 11.8019 9.535 11.7064L13.121 8.12143C13.3996 7.84285 13.6207 7.51211 13.7715 7.1481C13.9222 6.78409 13.9999 6.39394 13.9999 5.99993C13.9999 5.60592 13.9222 5.21577 13.7715 4.85176C13.6207 4.48775 13.3996 4.15701 13.121 3.87843L9.535 0.29243C9.34747 0.104959 9.09316 -0.000355612 8.828 -0.000355615C8.56284 -0.000355618 8.30853 0.104959 8.121 0.29243Z" fill="white"/>
</svg>
