<svg width="12" height="7" viewBox="0 0 12 7" fill="none" xmlns="http://www.w3.org/2000/svg">
<path d="M5.39294 4.95233C5.55396 5.10802 5.77232 5.19547 6 5.19547C6.22768 5.19547 6.44605 5.10802 6.60707 4.95233L10.5448 1.14475C10.7068 0.993474 10.9237 0.90977 11.1488 0.911662C11.3739 0.913554 11.5893 1.00089 11.7485 1.15486C11.9077 1.30883 11.998 1.51712 12 1.73486C12.0019 1.9526 11.9154 2.16237 11.759 2.31899L7.8212 6.12409C7.33814 6.59114 6.68305 6.85352 6 6.85352C5.31695 6.85352 4.66187 6.59114 4.1788 6.12409L0.241034 2.31567C0.0846236 2.15905 -0.0019233 1.94928 3.26758e-05 1.73154C0.00198961 1.5138 0.092293 1.30551 0.251494 1.15154C0.410694 0.99757 0.626055 0.910233 0.85119 0.908341C1.07633 0.906449 1.29322 0.990153 1.45517 1.14142L5.39294 4.95233Z" fill="#282828"/>
</svg>
