<svg width="8" height="16" viewBox="0 0 8 16" fill="none" xmlns="http://www.w3.org/2000/svg">
<path d="M5.56804 8.37445C5.76719 8.17036 5.87906 7.89359 5.87906 7.605C5.87906 7.31641 5.76719 7.03964 5.56804 6.83554L0.697445 1.84442C0.503941 1.63916 0.396868 1.36424 0.399289 1.07888C0.401709 0.793523 0.513429 0.520554 0.710386 0.318767C0.907343 0.116981 1.17378 0.00252083 1.45231 4.11419e-05C1.73084 -0.00243855 1.99917 0.10726 2.19952 0.30551L7.06693 5.29663C7.66437 5.90891 8 6.73923 8 7.605C8 8.47077 7.66437 9.30109 7.06693 9.91337L2.19527 14.9045C1.99492 15.1027 1.72659 15.2124 1.44806 15.21C1.16953 15.2075 0.903093 15.093 0.706136 14.8912C0.50918 14.6894 0.39746 14.4165 0.39504 14.1311C0.392619 13.8458 0.499692 13.5708 0.693196 13.3656L5.56804 8.37445Z" fill="white"/>
</svg>
