<svg width="8" height="16" viewBox="0 0 8 16" fill="none" xmlns="http://www.w3.org/2000/svg">
<path d="M2.43196 7.62555C2.23281 7.82964 2.12094 8.10641 2.12094 8.395C2.12094 8.68359 2.23281 8.96036 2.43196 9.16446L7.30255 14.1556C7.49606 14.3608 7.60313 14.6358 7.60071 14.9211C7.59829 15.2065 7.48657 15.4794 7.28961 15.6812C7.09266 15.883 6.82622 15.9975 6.54769 16C6.26916 16.0024 6.00083 15.8927 5.80048 15.6945L0.933073 10.7034C0.335627 10.0911 1.17833e-06 9.26077 1.3297e-06 8.395C1.48108e-06 7.52923 0.335628 6.69891 0.933073 6.08663L5.80473 1.09551C6.00508 0.897262 6.27342 0.787564 6.55194 0.790043C6.83047 0.792523 7.09691 0.906983 7.29387 1.10877C7.49082 1.31056 7.60254 1.58353 7.60496 1.86889C7.60738 2.15424 7.50031 2.42916 7.30681 2.63442L2.43196 7.62555Z" fill="white"/>
</svg>
