<svg width="12" height="7" viewBox="0 0 12 7" fill="none" xmlns="http://www.w3.org/2000/svg">
<path d="M6.60706 2.13947C6.44604 1.98378 6.22768 1.89632 6 1.89632C5.77232 1.89632 5.55395 1.98378 5.39293 2.13947L1.45516 5.94705C1.29322 6.09832 1.07632 6.18203 0.851189 6.18014C0.626053 6.17824 0.410693 6.09091 0.251493 5.93693C0.0922921 5.78296 0.00198859 5.57468 3.22353e-05 5.35694C-0.00192412 5.1392 0.0846234 4.92943 0.241033 4.7728L4.1788 0.96771C4.66186 0.500657 5.31695 0.238281 6 0.238282C6.68305 0.238282 7.33813 0.500657 7.8212 0.96771L11.759 4.77613C11.9154 4.93275 12.0019 5.14252 12 5.36026C11.998 5.578 11.9077 5.78629 11.7485 5.94026C11.5893 6.09423 11.3739 6.18156 11.1488 6.18346C10.9237 6.18535 10.7068 6.10164 10.5448 5.95037L6.60706 2.13947Z" fill="#5ABBFF"/>
</svg>
