<svg width="6" height="11" viewBox="0 0 6 11" fill="none" xmlns="http://www.w3.org/2000/svg">
<path d="M4.76434 3.81184L1.70706 0.700287C1.51946 0.509453 1.26507 0.40228 0.999833 0.402344C0.734598 0.402407 0.480251 0.509702 0.292746 0.700626C0.105242 0.891549 -6.2419e-05 1.15046 1.15264e-07 1.4204C6.26495e-05 1.69035 0.105487 1.94921 0.29308 2.14004L3.35036 5.25092C3.3814 5.28243 3.40603 5.31986 3.42284 5.36108C3.43964 5.40229 3.44829 5.44648 3.44829 5.4911C3.44829 5.53572 3.43964 5.57991 3.42284 5.62112C3.40603 5.66234 3.3814 5.69977 3.35036 5.73129L0.293081 8.84216C0.105488 9.03299 6.33025e-05 9.29186 8.14594e-07 9.5618C-6.16733e-05 9.83174 0.105242 10.0907 0.292747 10.2816C0.480252 10.4725 0.734599 10.5798 0.999833 10.5799C1.26507 10.5799 1.51946 10.4727 1.70706 10.2819L4.76434 7.17036C5.20115 6.72457 5.44645 6.12068 5.44645 5.4911C5.44645 4.86152 5.20115 4.25763 4.76434 3.81184Z" fill="white"/>
</svg>
