<svg width="12" height="13" viewBox="0 0 12 13" fill="none" xmlns="http://www.w3.org/2000/svg">
<path d="M5.9996 1.10744C7.60201 1.10744 7.79134 1.11322 8.42457 1.14293C9.00947 1.17016 9.32689 1.27001 9.53877 1.35418C9.79758 1.45642 10.0326 1.61307 10.2287 1.81405C10.4247 2.01503 10.5775 2.25587 10.6771 2.52104C10.7577 2.73725 10.8568 3.06321 10.8834 3.66232C10.9124 4.31011 10.9188 4.50487 10.9188 6.1454C10.9188 7.78593 10.9124 7.98068 10.8834 8.62848C10.8568 9.22511 10.7633 9.5552 10.6771 9.76976C10.5775 10.0349 10.4247 10.2758 10.2287 10.4767C10.0326 10.6777 9.79758 10.8344 9.53877 10.9366C9.32689 11.0191 9.00947 11.1206 8.42457 11.1479C7.79134 11.1776 7.60201 11.1842 5.9996 11.1842C4.39718 11.1842 4.20785 11.1776 3.57543 11.1479C2.99053 11.1206 2.67231 11.0208 2.46123 10.9366C2.20242 10.8344 1.9674 10.6777 1.77133 10.4767C1.57526 10.2758 1.42249 10.0349 1.32286 9.76976C1.2423 9.55355 1.1424 9.22841 1.11581 8.62931C1.08681 7.98068 1.08117 7.78676 1.08117 6.1454C1.08117 4.50404 1.08681 4.31011 1.11581 3.66232C1.1424 3.06321 1.24068 2.73725 1.32286 2.52104C1.42293 2.25547 1.57632 2.01438 1.77311 1.81338C1.9699 1.61237 2.2057 1.45593 2.46526 1.35418C2.67633 1.27166 2.99456 1.17016 3.57946 1.14293C4.21188 1.11322 4.40201 1.10744 6.00362 1.10744H5.9996ZM6.00362 0C4.37462 0 4.16999 0.00660179 3.53031 0.0363096C3.0325 0.0470825 2.54005 0.143894 2.07372 0.32266C1.67444 0.480113 1.31173 0.721345 1.00885 1.03087C0.705977 1.34039 0.469637 1.71137 0.315005 2.11999C0.140156 2.5981 0.0458978 3.10317 0.0362538 3.61363C0.00644518 4.26885 0 4.47763 0 6.14705C0 7.81647 0.00644518 8.02525 0.0362538 8.68129C0.0461551 9.19092 0.14041 9.69514 0.315005 10.1725C0.468968 10.5809 0.7046 10.9519 1.00678 11.2615C1.30896 11.5712 1.67101 11.8127 2.06969 11.9706C2.53597 12.1495 3.02848 12.246 3.52628 12.2561C4.16596 12.2858 4.37059 12.2933 5.9996 12.2933C7.6286 12.2933 7.83323 12.2858 8.47371 12.2561C8.97151 12.246 9.46403 12.1495 9.93031 11.9706C10.329 11.8127 10.691 11.5712 10.9932 11.2615C11.2954 10.9519 11.531 10.5809 11.685 10.1725C11.8596 9.69514 11.9538 9.19092 11.9637 8.68129C11.9927 8.02525 12 7.81647 12 6.14705C12 4.47763 11.9927 4.26885 11.9637 3.61363C11.9539 3.10373 11.8597 2.59923 11.685 2.12164C11.5308 1.71342 11.2951 1.3427 10.9929 1.03319C10.6908 0.723695 10.3288 0.482245 9.93031 0.324311C9.46398 0.145545 8.97152 0.048733 8.47371 0.0379601C7.8292 0.00825226 7.62941 0.00165047 5.9996 0.00165047L6.00362 0Z" fill="white"/>
<path d="M5.99987 2.99023C5.39059 2.9904 4.79503 3.17561 4.28851 3.52246C3.78199 3.8693 3.38725 4.3622 3.1542 4.93883C2.92115 5.51546 2.86026 6.14993 2.97922 6.76201C3.09818 7.37409 3.39166 7.93629 3.82254 8.37753C4.25342 8.81877 4.80236 9.11924 5.39994 9.24093C5.99753 9.36263 6.61692 9.30009 7.17981 9.06122C7.7427 8.82235 8.2238 8.41789 8.56228 7.89896C8.90076 7.38004 9.08142 6.76996 9.08142 6.14587C9.08142 5.7314 9.00171 5.32098 8.84684 4.93807C8.69196 4.55516 8.46497 4.20725 8.17881 3.91421C7.89265 3.62117 7.55293 3.38874 7.17907 3.23021C6.8052 3.07167 6.4045 2.99013 5.99987 2.99023ZM5.99987 8.19489C5.60423 8.19489 5.21747 8.07472 4.88851 7.84957C4.55955 7.62442 4.30315 7.3044 4.15175 6.93C4.00034 6.55559 3.96073 6.1436 4.03791 5.74613C4.1151 5.34866 4.30562 4.98356 4.58538 4.697C4.86514 4.41044 5.22157 4.21529 5.60961 4.13622C5.99765 4.05716 6.39986 4.09774 6.76538 4.25283C7.13091 4.40791 7.44333 4.67054 7.66313 5.0075C7.88294 5.34446 8.00026 5.74061 8.00026 6.14587C8.00026 6.6893 7.7895 7.21048 7.41436 7.59474C7.03921 7.97901 6.5304 8.19489 5.99987 8.19489Z" fill="white"/>
<path d="M9.2027 3.60244C9.6005 3.60244 9.92297 3.27214 9.92297 2.8647C9.92297 2.45725 9.6005 2.12695 9.2027 2.12695C8.8049 2.12695 8.48242 2.45725 8.48242 2.8647C8.48242 3.27214 8.8049 3.60244 9.2027 3.60244Z" fill="white"/>
</svg>
