<svg width="48" height="48" viewBox="0 0 48 48" fill="none" xmlns="http://www.w3.org/2000/svg">
<circle cx="24" cy="24" r="22.5" stroke="#0099FF" stroke-width="3"/>
<path d="M31.5789 26.8516C30.4686 26.8516 29.3811 26.6782 28.3503 26.3381C27.8473 26.1647 27.276 26.2983 26.9454 26.6356L24.9019 28.1789C22.5572 26.9274 21.0565 25.4277 19.8221 23.1L21.3237 21.1048C21.7017 20.7268 21.8372 20.1736 21.6752 19.6554C21.3322 18.618 21.1579 17.5295 21.1579 16.4211C21.1579 15.6376 20.5203 15 19.7369 15H16.4211C15.6376 15 15 15.6376 15 16.4211C15 25.5622 22.4378 33 31.5789 33C32.3624 33 33 32.3624 33 31.5789V28.2726C33 27.4892 32.3624 26.8516 31.5789 26.8516Z" fill="#0099FF"/>
</svg>
