<svg width="48" height="48" viewBox="0 0 48 48" fill="none" xmlns="http://www.w3.org/2000/svg">
<circle cx="24" cy="24" r="22.5" stroke="#0099FF" stroke-width="3"/>
<path d="M24 12C19.038 12 15 16.066 15 21.065C15 28.168 23.154 35.502 23.501 35.81C23.644 35.937 23.822 36 24 36C24.178 36 24.356 35.937 24.499 35.811C24.846 35.502 33 28.168 33 21.065C33 16.066 28.962 12 24 12ZM24 26C21.243 26 19 23.757 19 21C19 18.243 21.243 16 24 16C26.757 16 29 18.243 29 21C29 23.757 26.757 26 24 26Z" fill="#0099FF"/>
</svg>
