<svg width="11" height="22" viewBox="0 0 11 22" fill="none" xmlns="http://www.w3.org/2000/svg">
<path d="M7.60817 11.6798C7.88592 11.3951 8.04195 11.0091 8.04195 10.6066C8.04195 10.2041 7.88592 9.8181 7.60817 9.53345L0.815216 2.57239C0.545337 2.28611 0.396004 1.90269 0.399379 1.5047C0.402755 1.10672 0.558571 0.726011 0.833264 0.444581C1.10796 0.163151 1.47955 0.00351578 1.86801 5.73801e-05C2.25647 -0.00340102 2.63072 0.149595 2.91014 0.426091L9.69866 7.38715C10.5319 8.24109 11 9.39913 11 10.6066C11 11.8141 10.5319 12.9721 9.69866 13.8261L2.90422 20.7871C2.62479 21.0636 2.25055 21.2166 1.86209 21.2131C1.47363 21.2097 1.10203 21.0501 0.827337 20.7686C0.552643 20.4872 0.396829 20.1065 0.393454 19.7085C0.390078 19.3105 0.539411 18.9271 0.80929 18.6408L7.60817 11.6798Z" fill="white"/>
</svg>
