<svg width="14" height="9" viewBox="0 0 14 9" fill="none" xmlns="http://www.w3.org/2000/svg">
<path fill-rule="evenodd" clip-rule="evenodd" d="M6.85084 8.95988H7.68771C7.68771 8.95988 7.93987 8.92858 8.06924 8.77128C8.18837 8.62798 8.18472 8.3595 8.18472 8.3595C8.18472 8.3595 8.16791 7.09451 8.68904 6.90839C9.21016 6.72226 9.86285 8.13137 10.5616 8.67163C11.0907 9.08341 11.4927 8.99117 11.4927 8.99117L13.3624 8.96235C13.3624 8.96235 14.3403 8.89399 13.874 8.02761C13.836 7.95678 13.6036 7.38687 12.4853 6.21577C11.3159 4.98949 11.4701 5.18797 12.8822 3.0673C13.7424 1.77513 14.0867 0.986983 13.9785 0.649324C13.8762 0.327311 13.2432 0.412138 13.2432 0.412138L11.1383 0.426962C11.0449 0.414497 10.9503 0.433407 10.8664 0.481317C10.7864 0.547063 10.7225 0.634626 10.6807 0.735798C10.4622 1.37306 10.2023 1.99131 9.90305 2.58552C8.96531 4.37841 8.58744 4.47394 8.43688 4.36194C8.08093 4.10251 8.1701 3.31931 8.1701 2.7634C8.1701 1.02487 8.40399 0.300134 7.71403 0.112362C7.48526 0.0497716 7.31642 0.00941707 6.73171 0.00200502C5.98035 -0.00623059 5.34301 0.00200476 4.98488 0.203777C4.7466 0.332253 4.56169 0.627087 4.67352 0.643559C4.81238 0.664971 5.1274 0.739915 5.29477 0.996043C5.51039 1.32547 5.50308 2.06667 5.50308 2.06667C5.50308 2.06667 5.62733 4.11322 5.21072 4.36688C4.92713 4.54147 4.53757 4.18569 3.70216 2.55504C3.41976 1.99058 3.16977 1.4063 2.95373 0.8058C2.91527 0.703534 2.85592 0.612953 2.78051 0.541437C2.68253 0.468138 2.57238 0.417988 2.45672 0.39402L0.456269 0.408844C0.456269 0.408844 0.155873 0.418727 0.0455079 0.565321C-0.0524316 0.696267 0.038199 0.967218 0.038199 0.967218C0.038199 0.967218 1.60377 5.09655 3.37764 7.17687C5.00388 9.08506 6.85084 8.95988 6.85084 8.95988Z" fill="white"/>
</svg>
