<svg width="48" height="50" viewBox="0 0 48 50" fill="none" xmlns="http://www.w3.org/2000/svg">
<path d="M42.0121 5.72475C40.7929 4.59981 35.8661 1.02326 24.8921 0.974668C24.8921 0.974668 11.9508 0.194276 5.64215 5.98096C2.13039 9.49346 0.895013 14.633 0.764703 21.005C0.634392 27.3769 0.465797 39.3184 11.9766 42.5563H11.9876L11.9803 47.4971C11.9803 47.4971 11.9066 49.4974 13.2237 49.9053C14.8169 50.4 15.7519 48.8797 17.2729 47.2409C18.1078 46.3412 19.2607 45.0197 20.1295 44.0096C28.0019 44.6722 34.0565 43.1578 34.7441 42.934C36.3336 42.4186 45.328 41.2665 46.7909 29.3257C48.3009 17.0183 46.0606 9.23357 42.0121 5.72475Z" fill="white"/>
<path d="M39.4523 8.21113C38.4216 7.27466 33.9726 4.47924 24.6896 4.43875C24.6896 4.43875 13.6971 3.71652 8.36103 8.54979C5.39112 11.4822 4.3906 15.8428 4.2809 21.1642C4.1712 26.4856 3.60284 36.6513 13.3364 39.3554C13.3364 39.3554 13.2981 46.9024 13.2937 47.5657C13.2937 48.0295 13.3673 48.3468 13.6324 48.4124C13.823 48.4587 14.1087 48.3601 14.3516 48.1179C15.908 46.5549 20.8907 40.5437 20.8907 40.5437C27.5763 40.9802 32.8955 39.6602 33.4676 39.4732C34.8163 39.0396 42.1115 38.413 43.3462 28.4402C44.622 18.1604 42.8772 11.1435 39.4523 8.21113Z" fill="#7360F2"/>
<path d="M29.4096 20.7268C29.2888 18.2929 28.0525 17.0145 25.7005 16.8918" stroke="white" stroke-width="1.22883" stroke-linecap="round" stroke-linejoin="round"/>
<path d="M32.5936 21.7944C32.6427 19.5269 31.971 17.6323 30.5786 16.1108C29.1798 14.5839 27.2435 13.7431 24.7588 13.5613" stroke="white" stroke-width="1.22883" stroke-linecap="round" stroke-linejoin="round"/>
<path d="M35.8536 23.0692C35.8237 19.1343 34.648 16.0353 32.3264 13.7722C30.0049 11.5091 27.1177 10.3655 23.6648 10.3414" stroke="white" stroke-width="1.22883" stroke-linecap="round" stroke-linejoin="round"/>
<path d="M25.8234 29.0393C25.8234 29.0393 26.6958 29.1129 27.1655 28.5342L28.0814 27.3821C28.5231 26.8108 29.5891 26.4463 30.6331 27.0279C31.4154 27.4741 32.1749 27.9591 32.9088 28.4812C33.6015 28.9907 35.0202 30.1745 35.0246 30.1745C35.7005 30.7451 35.8566 31.5829 35.3964 32.4664C35.3964 32.4715 35.3928 32.4804 35.3928 32.4848C34.886 33.3633 34.2426 34.1556 33.4867 34.8319C33.4778 34.8363 33.4778 34.8407 33.4697 34.8451C32.813 35.3938 32.1679 35.7057 31.5342 35.7808C31.4409 35.7972 31.3461 35.8031 31.2515 35.7985C30.9721 35.8012 30.6941 35.7584 30.4284 35.6719L30.4078 35.6417C29.4316 35.3664 27.8016 34.6772 25.0872 33.1798C23.5164 32.3234 22.0209 31.3356 20.6168 30.2268C19.9131 29.6714 19.2418 29.076 18.6062 28.4437L18.5385 28.376L18.4708 28.3082L18.403 28.2405C18.3802 28.2184 18.3581 28.1956 18.3353 28.1728C17.703 27.5372 17.1076 26.8659 16.5522 26.1621C15.4436 24.7582 14.4557 23.263 13.5992 21.6926C12.1017 18.9774 11.4126 17.3489 11.1373 16.3712L11.1071 16.3506C11.0208 16.0848 10.9783 15.8068 10.9812 15.5275C10.9761 15.4329 10.9817 15.338 10.9981 15.2448C11.0772 14.6121 11.3896 13.9664 11.9354 13.3078C11.9398 13.2997 11.9442 13.2997 11.9486 13.2908C12.6247 12.535 13.417 11.8918 14.2957 11.3855C14.3001 11.3855 14.3089 11.3811 14.3141 11.3811C15.1975 10.9209 16.0354 11.077 16.6052 11.7492C16.6096 11.7536 17.7912 13.1723 18.2985 13.8651C18.8206 14.5996 19.3057 15.3599 19.7518 16.1429C20.3334 17.1862 19.969 18.2544 19.3977 18.6947L18.2455 19.6105C17.6639 20.0802 17.7404 20.9527 17.7404 20.9527C17.7404 20.9527 19.447 27.4115 25.8234 29.0393Z" fill="white"/>
</svg>
